<svg width="92" height="105" viewBox="0 0 92 105" fill="none" xmlns="http://www.w3.org/2000/svg">
<line x1="41.6572" y1="2" x2="41.6572" y2="104.365" stroke="url(#paint0_linear)" stroke-width="2"/>
<line x1="52.9673" y1="2" x2="52.9673" y2="104.365" stroke="url(#paint1_linear)" stroke-width="2"/>
<path d="M39.6572 84.8224C39.6572 94.9718 31.449 103.196 21.3286 103.196C11.2082 103.196 3 94.9718 3 84.8224C3 74.673 11.2082 66.4492 21.3286 66.4492C31.449 66.4492 39.6572 74.673 39.6572 84.8224Z" stroke="url(#paint2_linear)" stroke-width="2"/>
<path d="M39.6572 84.8224C39.6572 94.9718 31.449 103.196 21.3286 103.196C11.2082 103.196 3 94.9718 3 84.8224C3 74.673 11.2082 66.4492 21.3286 66.4492C31.449 66.4492 39.6572 74.673 39.6572 84.8224Z" stroke="url(#paint3_linear)" stroke-width="2"/>
<path d="M52.968 21.5486C53.0579 11.3996 61.3385 3.24913 71.4585 3.33914C81.5786 3.42915 89.7136 11.7256 89.6238 21.8746C89.5339 32.0236 81.2533 40.174 71.1332 40.084C61.0132 39.994 52.8782 31.6975 52.968 21.5486Z" stroke="url(#paint4_linear)" stroke-width="2"/>
<line x1="2.00149" y1="1.67676" x2="90.626" y2="1.80864" stroke="url(#paint5_linear)" stroke-width="2"/>
<line x1="2" y1="103.365" x2="90.6245" y2="103.365" stroke="url(#paint6_linear)" stroke-width="2"/>
<line x1="1.24688" y1="103.707" x2="89.9142" y2="2.20386" stroke="url(#paint7_linear)" stroke-width="2"/>
<line x1="2.75398" y1="2.35824" x2="90.8186" y2="103.438" stroke="url(#paint8_linear)" stroke-width="2"/>
<defs>
<linearGradient id="paint0_linear" x1="40.6572" y1="53.1823" x2="39.6572" y2="53.1823" gradientUnits="userSpaceOnUse">
<stop stop-color="#A08A14"/>
<stop offset="0.630208" stop-color="#DABB17" stop-opacity="0.46"/>
<stop offset="0.979067" stop-color="#DABB17"/>
<stop offset="0.979167" stop-color="#DABB17" stop-opacity="0"/>
<stop offset="0.979267" stop-color="#DABB17" stop-opacity="0"/>
</linearGradient>
<linearGradient id="paint1_linear" x1="51.9673" y1="53.1823" x2="50.9673" y2="53.1823" gradientUnits="userSpaceOnUse">
<stop stop-color="#A08A14"/>
<stop offset="0.630208" stop-color="#DABB17" stop-opacity="0.46"/>
<stop offset="0.979067" stop-color="#DABB17"/>
<stop offset="0.979167" stop-color="#DABB17" stop-opacity="0"/>
<stop offset="0.979267" stop-color="#DABB17" stop-opacity="0"/>
</linearGradient>
<linearGradient id="paint2_linear" x1="21.3286" y1="65.4492" x2="21.3286" y2="104.196" gradientUnits="userSpaceOnUse">
<stop stop-color="#A08A14"/>
<stop offset="0.630208" stop-color="#DABB17" stop-opacity="0.46"/>
<stop offset="0.979067" stop-color="#DABB17"/>
<stop offset="0.979167" stop-color="#DABB17" stop-opacity="0"/>
<stop offset="0.979267" stop-color="#DABB17" stop-opacity="0"/>
</linearGradient>
<linearGradient id="paint3_linear" x1="21.3286" y1="65.4492" x2="21.3286" y2="104.196" gradientUnits="userSpaceOnUse">
<stop stop-color="#A08A14"/>
<stop offset="0.630208" stop-color="#DABB17" stop-opacity="0.46"/>
<stop offset="0.979067" stop-color="#DABB17"/>
<stop offset="0.979167" stop-color="#DABB17" stop-opacity="0"/>
<stop offset="0.979267" stop-color="#DABB17" stop-opacity="0"/>
</linearGradient>
<linearGradient id="paint4_linear" x1="71.1244" y1="41.084" x2="71.469" y2="2.33919" gradientUnits="userSpaceOnUse">
<stop stop-color="#A08A14"/>
<stop offset="0.630208" stop-color="#DABB17" stop-opacity="0.46"/>
<stop offset="0.979067" stop-color="#DABB17"/>
<stop offset="0.979167" stop-color="#DABB17" stop-opacity="0"/>
<stop offset="0.979267" stop-color="#DABB17" stop-opacity="0"/>
</linearGradient>
<linearGradient id="paint5_linear" x1="46.3123" y1="2.7427" x2="46.3108" y2="3.7427" gradientUnits="userSpaceOnUse">
<stop stop-color="#A08A14"/>
<stop offset="0.630208" stop-color="#DABB17" stop-opacity="0.46"/>
<stop offset="0.979067" stop-color="#DABB17"/>
<stop offset="0.979167" stop-color="#DABB17" stop-opacity="0"/>
<stop offset="0.979267" stop-color="#DABB17" stop-opacity="0"/>
</linearGradient>
<linearGradient id="paint6_linear" x1="46.3122" y1="104.365" x2="46.3122" y2="105.365" gradientUnits="userSpaceOnUse">
<stop stop-color="#A08A14"/>
<stop offset="0.630208" stop-color="#DABB17" stop-opacity="0.46"/>
<stop offset="0.979067" stop-color="#DABB17"/>
<stop offset="0.979167" stop-color="#DABB17" stop-opacity="0"/>
<stop offset="0.979267" stop-color="#DABB17" stop-opacity="0"/>
</linearGradient>
<linearGradient id="paint7_linear" x1="46.3337" y1="53.6132" x2="47.0868" y2="54.2711" gradientUnits="userSpaceOnUse">
<stop stop-color="#A08A14"/>
<stop offset="0.630208" stop-color="#DABB17" stop-opacity="0.46"/>
<stop offset="0.979067" stop-color="#DABB17"/>
<stop offset="0.979167" stop-color="#DABB17" stop-opacity="0"/>
<stop offset="0.979267" stop-color="#DABB17" stop-opacity="0"/>
</linearGradient>
<linearGradient id="paint8_linear" x1="46.0323" y1="53.5551" x2="45.2783" y2="54.212" gradientUnits="userSpaceOnUse">
<stop stop-color="#A08A14"/>
<stop offset="0.630208" stop-color="#DABB17" stop-opacity="0.46"/>
<stop offset="0.979067" stop-color="#DABB17"/>
<stop offset="0.979167" stop-color="#DABB17" stop-opacity="0"/>
<stop offset="0.979267" stop-color="#DABB17" stop-opacity="0"/>
</linearGradient>
</defs>
</svg>
